<?xml version="1.0" encoding="UTF-8" standalone="no"?><!DOCTYPE svg PUBLIC "-//W3C//DTD SVG 1.1//EN" "http://www.w3.org/Graphics/SVG/1.1/DTD/svg11.dtd"><svg width="100%" height="100%" viewBox="0 0 167 84" version="1.1" xmlns="http://www.w3.org/2000/svg" xmlns:xlink="http://www.w3.org/1999/xlink" xml:space="preserve" xmlns:serif="http://www.serif.com/" style="fill-rule:evenodd;clip-rule:evenodd;stroke-linejoin:round;stroke-miterlimit:2;"><rect id="Artboard1" x="0" y="0" width="166.667" height="83.333" style="fill:none;"/><g id="Artboard11" serif:id="Artboard1"><g><path d="M156.463,0.042c0.097,0 0.19,0.039 0.259,0.107c0.068,0.069 0.107,0.162 0.107,0.258l-0,40.049c-0,0.097 -0.039,0.19 -0.107,0.258c-0.069,0.069 -0.162,0.107 -0.259,0.107l-16.981,0c-0.097,0 -0.19,-0.038 -0.259,-0.107c-0.068,-0.068 -0.107,-0.161 -0.107,-0.258l0,-40.049c0,-0.096 0.039,-0.189 0.107,-0.258c0.069,-0.068 0.162,-0.107 0.259,-0.107l16.981,0Zm-6.069,10.896c0,-0.202 -0.163,-0.365 -0.365,-0.365l-4.89,-0c-0.201,-0 -0.365,0.163 -0.365,0.365l0,26.169c0,0.201 0.164,0.365 0.365,0.365l4.89,-0c0.202,-0 0.365,-0.164 0.365,-0.365l0,-26.169Z" style="fill:#5a5a5a;"/><path d="M68.628,40.821c-0.097,0 -0.19,-0.038 -0.259,-0.107c-0.068,-0.068 -0.107,-0.161 -0.107,-0.258l0,-40.049c0,-0.096 0.039,-0.189 0.107,-0.258c0.069,-0.068 0.162,-0.107 0.259,-0.107l20.864,0c0.202,0 0.366,0.164 0.366,0.365l-0,22.391c-0,0.097 0.038,0.19 0.107,0.259c0.068,0.068 0.161,0.107 0.258,0.107l10.517,-0c0.097,-0 0.19,0.038 0.259,0.107c0.068,0.068 0.107,0.161 0.107,0.258l-0,16.927c-0,0.201 -0.164,0.365 -0.366,0.365l-32.112,0Zm12.161,-36.374c0,-0.202 -0.163,-0.365 -0.365,-0.365l-6.77,-0c-0.202,-0 -0.366,0.163 -0.366,0.365l0,16.927c0,0.202 0.164,0.365 0.366,0.365l6.77,0c0.202,0 0.365,-0.163 0.365,-0.365l0,-16.927Zm9.074,23.403c-0,-0.097 -0.039,-0.189 -0.107,-0.258c-0.069,-0.068 -0.162,-0.107 -0.258,-0.107c-2.225,0 -13.925,0 -16.149,0c-0.097,0 -0.19,0.039 -0.258,0.107c-0.069,0.069 -0.107,0.161 -0.107,0.258c-0,1.574 -0,7.765 -0,9.339c-0,0.097 0.038,0.19 0.107,0.258c0.068,0.069 0.161,0.107 0.258,0.107l16.149,0c0.096,0 0.189,-0.038 0.258,-0.107c0.068,-0.068 0.107,-0.161 0.107,-0.258c-0,-1.574 -0,-7.765 -0,-9.339Z" style="fill:#5a5a5a;"/><path d="M127.189,0.407c-0,-0.201 -0.164,-0.365 -0.365,-0.365l-23.38,0c-0.202,0 -0.365,0.164 -0.365,0.365l-0,40.049c-0,0.097 0.038,0.19 0.107,0.258c0.068,0.069 0.161,0.107 0.258,0.107l12.132,0c0.201,0 0.365,-0.164 0.365,-0.365l-0,-4.729c-0,-0.201 -0.164,-0.365 -0.365,-0.365l-2.936,0c-0.202,0 -0.365,-0.163 -0.365,-0.365l-0,-26.015c-0,-0.097 0.038,-0.19 0.107,-0.259c0.068,-0.068 0.161,-0.107 0.258,-0.107l4.909,0c0.202,0 0.365,0.164 0.365,0.366l0,11.843c0,0.202 0.164,0.365 0.366,0.365l8.544,0c0.201,0 0.365,-0.163 0.365,-0.365l-0,-20.418Z" style="fill:#ff2f00;"/><path d="M146.804,50.026c-0,-0.202 -0.164,-0.365 -0.366,-0.365l-23.379,-0c-0.202,-0 -0.365,0.163 -0.365,0.365l-0,32.942c-0,0.097 0.038,0.19 0.107,0.258c0.068,0.069 0.161,0.107 0.258,0.107l12.132,0c0.201,0 0.365,-0.163 0.365,-0.365c-0,-0.846 -0,-2.931 -0,-3.777c-0,-0.202 -0.164,-0.365 -0.365,-0.365l-2.936,-0c-0.202,-0 -0.365,-0.164 -0.365,-0.366l-0,-21.354c-0,-0.202 0.163,-0.365 0.365,-0.365l4.909,-0c0.202,-0 0.365,0.163 0.365,0.365l0,6.231c0,0.202 0.164,0.366 0.365,0.366l8.544,-0c0.202,-0 0.366,-0.164 0.366,-0.366l-0,-13.311Z" style="fill:#ff2f00;"/><path d="M129.162,29.041c0,-0.201 -0.163,-0.365 -0.365,-0.365l-3.556,0c-0.202,0 -0.366,0.164 -0.366,0.365l0,18.281c0,0.202 -0.163,0.365 -0.365,0.365l-39.461,0c-0.097,0 -0.19,0.039 -0.258,0.107c-0.069,0.069 -0.107,0.162 -0.107,0.259l0,34.913c0,0.202 -0.164,0.366 -0.365,0.366l-8.544,-0c-0.202,-0 -0.365,-0.164 -0.365,-0.366l-0,-34.913c-0,-0.202 -0.164,-0.366 -0.366,-0.366l-6.416,0c-0.097,0 -0.19,-0.038 -0.259,-0.107c-0.068,-0.068 -0.107,-0.161 -0.107,-0.258l0,-4.162c0,-0.202 0.164,-0.366 0.366,-0.366l48.921,0c0.202,0 0.365,-0.163 0.365,-0.365l0,-18.9c0,-0.097 0.039,-0.19 0.107,-0.258c0.069,-0.069 0.162,-0.107 0.259,-0.107l10.517,-0c0.097,-0 0.19,-0.039 0.258,-0.107c0.069,-0.069 0.107,-0.162 0.107,-0.259l0,-22.391c0,-0.201 0.164,-0.365 0.365,-0.365c1.332,0 5.919,0 7.251,0c0.201,0 0.365,0.164 0.365,0.365c-0,3.811 -0,36.238 -0,40.049c-0,0.201 -0.164,0.365 -0.365,0.365c-1.332,0 -5.919,0 -7.251,0c-0.201,0 -0.365,-0.164 -0.365,-0.365c0,-1.791 0,-9.624 0,-11.415Z" style="fill:#5a5a5a;"/><path d="M148.412,65.676c0.097,0 0.19,-0.038 0.258,-0.107c0.069,-0.068 0.107,-0.161 0.107,-0.258l0,-15.285c0,-0.202 0.164,-0.365 0.365,-0.365c1.332,-0 5.919,-0 7.251,-0c0.201,-0 0.365,0.163 0.365,0.365c-0,3.405 -0,29.538 -0,32.942c-0,0.202 -0.164,0.365 -0.365,0.365c-1.332,0 -5.919,0 -7.251,0c-0.201,0 -0.365,-0.163 -0.365,-0.365c0,-1.79 0,-9.624 0,-11.414c0,-0.202 -0.163,-0.366 -0.365,-0.366l-3.556,0c-0.202,0 -0.366,0.164 -0.366,0.366l0,11.414c0,0.097 -0.038,0.19 -0.107,0.258c-0.068,0.069 -0.161,0.107 -0.258,0.107l-6.231,0c-0.201,0 -0.365,-0.163 -0.365,-0.365l0,-16.927c0,-0.097 0.039,-0.189 0.107,-0.258c0.069,-0.068 0.162,-0.107 0.258,-0.107l10.518,0Z" style="fill:#5a5a5a;"/><path d="M101.106,7.893c-0,-0.202 -0.164,-0.365 -0.366,-0.365l-8.544,-0c-0.201,-0 -0.365,0.163 -0.365,0.365l0,13.104c0,0.201 0.164,0.365 0.365,0.365l8.544,-0c0.202,-0 0.366,-0.164 0.366,-0.365l-0,-13.104Z" style="fill:#5a5a5a;"/><path d="M101.106,0.407c-0,-0.201 -0.164,-0.365 -0.366,-0.365l-8.544,0c-0.201,0 -0.365,0.164 -0.365,0.365l0,4.782c0,0.202 0.164,0.366 0.365,0.366l8.544,-0c0.202,-0 0.366,-0.164 0.366,-0.366l-0,-4.782Z" style="fill:#5a5a5a;"/><path d="M156.829,43.16c-0,-0.097 -0.039,-0.19 -0.107,-0.259c-0.069,-0.068 -0.162,-0.107 -0.259,-0.107l-26.923,0c-0.097,0 -0.19,0.039 -0.259,0.107c-0.068,0.069 -0.107,0.162 -0.107,0.259l0,4.162c0,0.097 0.039,0.19 0.107,0.258c0.069,0.069 0.162,0.107 0.259,0.107l26.923,0c0.097,0 0.19,-0.038 0.259,-0.107c0.068,-0.068 0.107,-0.161 0.107,-0.258l-0,-4.162Z" style="fill:#5a5a5a;"/><path d="M120.355,78.765c0.097,0 0.19,0.039 0.258,0.107c0.069,0.069 0.107,0.162 0.107,0.259l0,3.835c0,0.097 -0.038,0.19 -0.107,0.259c-0.068,0.068 -0.161,0.107 -0.258,0.107l-33.319,-0c-0.097,-0 -0.19,-0.039 -0.258,-0.107c-0.069,-0.069 -0.107,-0.162 -0.107,-0.259l-0,-32.94c-0,-0.097 0.038,-0.19 0.107,-0.258c0.068,-0.069 0.161,-0.107 0.258,-0.107l33.319,-0c0.097,-0 0.19,0.038 0.258,0.107c0.069,0.068 0.107,0.161 0.107,0.258l0,20.467c0,0.096 -0.038,0.189 -0.107,0.258c-0.068,0.068 -0.161,0.107 -0.258,0.107l-25.707,-0c-0.097,-0 -0.19,0.038 -0.259,0.107c-0.068,0.068 -0.107,0.161 -0.107,0.258l0,7.177c0,0.097 0.039,0.19 0.107,0.258c0.069,0.069 0.162,0.107 0.259,0.107l25.707,0Zm-12.402,-21.777c-0,-0.202 -0.164,-0.365 -0.365,-0.365c-1.938,-0 -11.002,-0 -12.94,-0c-0.202,-0 -0.366,0.163 -0.366,0.365c0,1.218 0,5.132 0,6.349c0,0.202 0.164,0.366 0.366,0.366c1.938,-0 11.002,-0 12.94,-0c0.201,-0 0.365,-0.164 0.365,-0.366c-0,-1.217 -0,-5.131 -0,-6.349Z" style="fill:#5a5a5a;"/><path d="M9.838,29.371c0.233,-5.254 1.047,-10.11 3.417,-13.742c5.242,-8.036 13.684,-15.629 22.114,-15.629c8.43,0 17.19,11.09 22.432,19.126c4.586,7.03 5.605,15.152 5.504,25.358c-0.116,11.814 -5.657,17.199 -12.173,24.135c-5.437,5.787 -8.697,14.266 -15.763,14.679c-9.389,0.549 -25.459,-16.936 -25.459,-38.814c-0,-0.787 -0.008,-1.582 -0.019,-2.384c2.559,1.306 5.266,2.263 7.802,3.627c1.257,0.675 3.505,1.64 3.606,3.482c0.59,4.23 0.96,8.496 1.112,12.77c0.438,2.158 1.891,3.676 3.776,4.474c0.137,0.057 0.292,0.021 0.41,-0.07c0.135,-0.105 0.223,-0.273 0.255,-0.448c0.597,-3.211 1.076,-6.448 1.436,-9.7c0.006,-0.057 0.045,-0.121 0.105,-0.121c0.058,0.001 0.093,0.067 0.093,0.124c0.085,7.194 -0.992,14.178 -1.333,21.322c-0.014,0.265 0.126,0.512 0.328,0.656c0.679,0.458 1.52,0.621 2.312,0.618c0.551,-0.002 1.119,-0.317 1.339,-0.879c2.46,-6.281 4.413,-12.697 5.866,-19.338c0.018,-0.082 0.085,-0.18 0.175,-0.158c0.09,0.021 0.12,0.141 0.11,0.226c-0.454,3.774 -1.058,7.528 -1.811,11.246c-0.084,0.415 -0.029,0.925 0.269,1.234c0.267,0.276 0.667,0.254 0.951,0.02c1.234,-1.017 2.45,-2.059 3.647,-3.127c2.254,-5.566 4.16,-11.296 5.708,-17.132c0.487,-1.98 1.762,-3.603 2.856,-5.229c2.939,-4.365 6.935,-8.48 7.49,-14.122c0.732,-7.442 -5.871,-12.273 -10.782,-16.029c-0.026,-0.023 -0.036,-0.065 -0.027,-0.099c0.008,-0.029 0.034,-0.052 0.063,-0.039c0.965,0.452 1.902,0.97 2.814,1.533c0.042,0.027 0.095,0.023 0.131,-0.013c0.043,-0.041 0.058,-0.108 0.055,-0.168c-0.208,-4.239 -2.892,-9.201 -6.847,-10.65c-2.587,-0.947 -5.562,-1.173 -8.266,-1.405c-1.367,-0.117 -2.736,-0.19 -4.107,-0.226c-2.161,-0.057 -4.248,0.89 -6.098,1.996c-4.295,2.568 -7.272,6.894 -9.802,11.323c-1.111,1.945 -3.371,5.464 -1.73,7.774c0.02,0.026 0.05,0.043 0.081,0.045c0.031,0.002 0.062,-0.011 0.084,-0.035c1.989,-2.196 4.325,-3.897 6.994,-4.982c-1.63,0.695 -2.884,2.23 -4.137,3.472c-0.794,0.788 -1.569,1.597 -2.325,2.426c-0.789,0.863 -1.73,1.826 -2.656,2.873Zm9.118,-8.771c0.074,-0.031 0.148,-0.061 0.224,-0.089c-0.075,0.029 -0.15,0.059 -0.224,0.089Zm23.375,11.036c1.62,-0.128 2.608,1.955 3.315,3.153c0.9,1.526 1.754,3.286 1.774,5.135c0.019,1.766 -1.056,2.981 -2.305,3.992c-0.738,0.598 -1.54,1.065 -2.488,1.04c-1.35,-0.036 -3.208,0.219 -4.108,-1.159c-1.087,-1.663 -0.911,-4.074 -0.961,-5.982c-0.037,-1.399 0.151,-2.858 0.762,-4.111c0.759,-1.556 2.513,-1.95 4.011,-2.068Zm-17.648,-5.409c2.279,-0.298 5.174,-0.396 6.76,1.75c1.251,1.694 1.821,3.889 1.938,6.018c0.155,2.83 0.503,6.682 -1.269,9.107c-1.493,2.044 -4.493,1.461 -6.552,1.409c-1.439,-0.035 -2.698,-0.702 -3.875,-1.537c-1.725,-1.224 -3.604,-2.617 -3.677,-5.053c-0.072,-2.401 1.126,-4.692 2.202,-6.703c1.015,-1.897 2.138,-4.685 4.473,-4.991Zm10.936,19.387c0.862,1.144 1.241,2.614 1.368,4.056c0.017,0.215 -0.025,0.441 -0.131,0.626c-0.089,0.155 -0.232,0.288 -0.406,0.313c-1.415,0.193 -2.858,0.075 -4.24,-0.298c-0.151,-0.042 -0.252,-0.196 -0.29,-0.352c-0.044,-0.177 -0.019,-0.377 0.073,-0.532c0.814,-1.362 1.696,-2.69 2.748,-3.855c0.251,-0.28 0.65,-0.26 0.878,0.042Z" style="fill:#ff2f00;"/></g></g></svg>