<?xml version="1.0" encoding="UTF-8" standalone="no"?>
<!DOCTYPE svg PUBLIC "-//W3C//DTD SVG 1.1//EN" "http://www.w3.org/Graphics/SVG/1.1/DTD/svg11.dtd">
<svg width="100%" height="100%" viewBox="0 0 440 645" version="1.1" xmlns="http://www.w3.org/2000/svg" xmlns:xlink="http://www.w3.org/1999/xlink" xml:space="preserve" xmlns:serif="http://www.serif.com/" style="fill-rule:evenodd;clip-rule:evenodd;stroke-linejoin:round;stroke-miterlimit:2;">
    <g transform="matrix(1,0,0,1,-5142,-423)">
        <g id="Artboard3" transform="matrix(1,0,0,1,-0.94488,-0.381422)">
            <rect x="5142.94" y="423.381" width="439.767" height="644.747" style="fill:none;"/>
            <clipPath id="_clip1">
                <rect x="5142.94" y="423.381" width="439.767" height="644.747"/>
            </clipPath>
            <g clip-path="url(#_clip1)">
                <g transform="matrix(2.64437,0,0,2.83214,-18175.6,-525.576)">
                    <path d="M8949.45,368.671C8949.35,368.629 8949.27,368.702 8949.24,368.791C8949.21,368.894 8949.24,369.023 8949.33,369.091C8965.43,380.593 8987.08,395.384 8984.68,418.168C8982.86,435.44 8969.76,448.039 8960.12,461.405C8956.54,466.38 8952.35,471.351 8950.76,477.413C8945.68,495.281 8939.43,512.823 8932.04,529.864C8928.12,533.132 8924.13,536.325 8920.08,539.438C8919.15,540.154 8917.84,540.222 8916.97,539.375C8915.99,538.429 8915.81,536.869 8916.08,535.599C8918.55,524.214 8920.53,512.723 8922.02,501.168C8922.05,500.906 8921.95,500.54 8921.66,500.474C8921.36,500.409 8921.14,500.707 8921.09,500.959C8916.32,521.293 8909.92,540.934 8901.85,560.165C8901.13,561.884 8899.27,562.849 8897.46,562.855C8894.86,562.866 8892.11,562.364 8889.88,560.962C8889.22,560.521 8888.76,559.767 8888.8,558.956C8889.92,537.083 8893.45,515.702 8893.18,493.674C8893.17,493.501 8893.06,493.3 8892.87,493.297C8892.68,493.295 8892.55,493.491 8892.52,493.665C8891.35,503.622 8889.78,513.532 8887.82,523.365C8887.71,523.898 8887.43,524.414 8886.98,524.737C8886.59,525.016 8886.09,525.124 8885.64,524.949C8879.46,522.508 8874.69,517.859 8873.26,511.251C8872.76,498.167 8871.54,485.106 8869.61,472.156C8869.28,466.516 8861.91,463.563 8857.78,461.494C8848.11,456.64 8837.69,453.467 8828.14,448.343C8824.47,446.369 8819.3,443.729 8818.72,439.046C8816.89,424.518 8831.8,411.754 8840.74,402.622C8843.22,400.086 8845.76,397.607 8848.36,395.197C8852.65,391.222 8856.95,386.268 8862.66,384.293C8853.6,387.598 8845.69,392.909 8838.99,399.818C8838.92,399.892 8838.82,399.931 8838.72,399.925C8838.61,399.92 8838.52,399.868 8838.45,399.788C8833.07,392.717 8840.48,381.943 8844.13,375.986C8852.42,362.429 8862.18,349.182 8876.26,341.321C8882.33,337.934 8889.18,335.035 8896.26,335.209C8900.76,335.32 8905.25,335.544 8909.73,335.902C8918.59,336.611 8928.35,337.303 8936.83,340.204C8949.8,344.64 8958.6,359.832 8959.28,372.811C8959.29,372.992 8959.24,373.197 8959.1,373.323C8958.98,373.432 8958.81,373.445 8958.67,373.364C8955.68,371.638 8952.61,370.053 8949.45,368.671ZM8880.7,401.794C8873.05,402.73 8869.37,411.267 8866.04,417.074C8862.51,423.232 8858.58,430.245 8858.82,437.597C8859.06,445.054 8865.22,449.318 8870.87,453.065C8874.74,455.624 8878.86,457.664 8883.58,457.774C8890.33,457.93 8900.17,459.717 8905.07,453.458C8910.87,446.033 8909.74,434.239 8909.23,425.578C8908.84,419.058 8906.97,412.337 8902.87,407.15C8897.67,400.581 8888.18,400.881 8880.7,401.794ZM8938.57,418.353C8933.66,418.714 8927.91,419.92 8925.42,424.686C8923.42,428.522 8922.8,432.988 8922.92,437.271C8923.09,443.114 8922.51,450.495 8926.07,455.587C8929.02,459.804 8935.12,459.023 8939.54,459.133C8942.65,459.211 8945.28,457.782 8947.7,455.952C8951.8,452.854 8955.32,449.134 8955.26,443.728C8955.19,438.066 8952.4,432.681 8949.44,428.006C8947.13,424.339 8943.88,417.963 8938.57,418.353ZM8916.56,461.148C8915.82,460.225 8914.51,460.163 8913.68,461.019C8910.24,464.587 8907.34,468.652 8904.68,472.822C8904.37,473.297 8904.29,473.91 8904.43,474.453C8904.56,474.93 8904.89,475.399 8905.39,475.53C8909.92,476.671 8914.65,477.033 8919.29,476.441C8919.86,476.364 8920.33,475.959 8920.62,475.483C8920.97,474.916 8921.11,474.226 8921.05,473.567C8920.63,469.153 8919.39,464.65 8916.56,461.148Z" style="fill:rgb(255,51,0);"/>
                </g>
            </g>
        </g>
    </g>
</svg>
